<svg fill="#000000" height="24px" width="24px" version="1.1" id="Layer_1" xmlns="http://www.w3.org/2000/svg" xmlns:xlink="http://www.w3.org/1999/xlink" viewBox="0 0 512 512" xml:space="preserve">
  <g id="SVGRepo_bgCarrier" stroke-width="0"></g>
  <g id="SVGRepo_tracerCarrier" stroke-linecap="round" stroke-linejoin="round"></g>
  <g id="SVGRepo_iconCarrier"> <g> <g> 
  <path d="M31.347,151.51v182.857h449.306V151.51H31.347z M464.98,318.694H47.02v-151.51H464.98V318.694z"></path> 
  </g> </g> <g> <g> <path d="M276.898,218.122c-4.328,0-7.837,3.509-7.837,7.837v2.612c0,4.328,3.509,7.837,7.837,7.837 c4.328,0,7.837-3.509,7.837-7.837v-2.612C284.735,221.631,281.226,218.122,276.898,218.122z"></path> </g> </g> <g> <g> <path d="M276.898,249.469c-4.328,0-7.837,3.509-7.837,7.837v2.612c0,4.328,3.509,7.837,7.837,7.837 c4.328,0,7.837-3.509,7.837-7.837v-2.612C284.735,252.978,281.226,249.469,276.898,249.469z"></path> </g> </g> <g> <g> <path d="M313.469,211.592c-4.328,0-7.837,3.509-7.837,7.837v47.02c0,4.328,3.509,7.837,7.837,7.837 c4.328,0,7.837-3.509,7.837-7.837v-47.02C321.306,215.101,317.797,211.592,313.469,211.592z"></path> </g> </g> <g> <g> <path d="M245.551,211.592h-47.02c-4.328,0-7.837,3.509-7.837,7.837c0,4.328,3.509,7.837,7.837,7.837h39.184v7.837h-39.184 c-4.328,0-7.837,3.509-7.837,7.837s3.509,7.837,7.837,7.837h39.184v7.837h-39.184c-4.328,0-7.837,3.509-7.837,7.837 c0,4.328,3.509,7.837,7.837,7.837h47.02c4.328,0,7.837-3.509,7.837-7.837v-47.02C253.388,215.101,249.879,211.592,245.551,211.592 z"></path> </g> </g> <g> <g> <path d="M172.408,250.776c4.328,0,7.837-3.509,7.837-7.837v-23.51c0-4.328-3.509-7.837-7.837-7.837h-47.02 c-4.328,0-7.837,3.509-7.837,7.837c0,4.328,3.509,7.837,7.837,7.837h39.184v7.837h-39.184c-4.328,0-7.837,3.509-7.837,7.837v23.51 c0,4.328,3.509,7.837,7.837,7.837h47.02c4.328,0,7.837-3.509,7.837-7.837c0-4.328-3.509-7.837-7.837-7.837h-39.184v-7.837H172.408 z"></path> </g> </g> <g> <g> <path d="M386.612,211.592h-47.02c-4.328,0-7.837,3.509-7.837,7.837v47.02c0,4.328,3.509,7.837,7.837,7.837h47.02 c4.328,0,7.837-3.509,7.837-7.837v-47.02C394.449,215.101,390.94,211.592,386.612,211.592z M378.776,258.612h-31.347v-31.347 h31.347V258.612z"></path> </g> </g> <g> <g> <path d="M483.265,120.163H28.735C12.891,120.163,0,133.053,0,148.898V336.98c0,15.845,12.891,28.735,28.735,28.735h40.641 l20.898,26.122h331.451l20.898-26.122h40.642c15.844,0,28.735-12.89,28.735-28.735V148.898 C512,133.053,499.109,120.163,483.265,120.163z M414.192,376.163H97.807l-8.359-10.449h333.104L414.192,376.163z M496.327,336.98 c0,7.202-5.859,13.061-13.061,13.061H28.735c-7.202,0-13.061-5.859-13.061-13.061V148.898c0-7.202,5.859-13.061,13.061-13.061 h454.531c7.202,0,13.061,5.859,13.061,13.061V336.98z"></path> </g> </g> </g></svg>